<?xml version="1.0"?>
<svg xmlns="http://www.w3.org/2000/svg" height="512px" viewBox="-107 0 512 512" width="512px">
    <path d="m96.648438 250.25h105.5v-96.75h-105.5zm90.5-15h-75.5v-12.25h75.5zm0-27.25h-75.5v-12.25h75.5zm-75.5-39.5h75.5v12.25h-75.5zm0 0"
          fill="#3f51b5"/>
    <path d="m191.363281 326.167969h42.328125v94.855469c0 14.261718-11.605468 25.867187-25.867187 25.867187-14.265625 0-25.871094-11.605469-25.871094-25.867187v-158.273438h-15v158.273438c0 22.535156 18.335937 40.867187 40.871094 40.867187 22.535156 0 40.867187-18.332031 40.867187-40.867187v-109.855469h-21.113281l56.222656-56.222657v166.078126c0 41.894531-34.082031 75.976562-75.976562 75.976562-19.980469 0-38.863281-7.730469-53.171875-21.765625l-5.253906-5.15625-5.25 5.152344c-14.308594 14.039062-33.191407 21.769531-53.171876 21.769531-41.894531 0-75.976562-34.082031-75.976562-75.976562v-166.078126l56.222656 56.21875h-21.113281v109.859376c0 22.535156 18.332031 40.867187 40.867187 40.867187 22.535157 0 40.867188-18.332031 40.867188-40.867187v-158.273438h-15v158.273438c0 14.261718-11.601562 25.867187-25.867188 25.867187-14.261718 0-25.867187-11.605469-25.867187-25.867187v-94.859376h42.324219l-107.433594-107.433593v202.292969c0 50.164062 40.8125 90.976562 90.976562 90.976562 21.558594 0 42.046876-7.511719 58.421876-21.285156 16.375 13.773437 36.867187 21.285156 58.425781 21.285156 50.164062 0 90.976562-40.8125 90.976562-90.976562v-202.292969zm0 0"
          fill="#3f51b5"/>
    <path d="m123.621094 72.441406c-5.148438 6.082032-7.988282 13.828125-7.988282 21.808594 0 18.617188 15.148438 33.765625 33.765626 33.765625 18.621093 0 33.765624-15.148437 33.765624-33.765625 0-8.058594-2.882812-15.859375-8.125-21.972656l-11.386718 9.765625c2.910156 3.394531 4.511718 7.730469 4.511718 12.207031 0 10.347656-8.417968 18.765625-18.765624 18.765625-10.347657 0-18.765626-8.417969-18.765626-18.765625 0-4.433594 1.578126-8.738281 4.4375-12.113281zm0 0"
          fill="#3f51b5"/>
    <path d="m141.84375 0h15v82.5h-15zm0 0" fill="#3f51b5"/>
    <path d="m208.648438 94.25c0 15.617188-6.019532 30.355469-16.957032 41.496094l10.707032 10.507812c13.703124-13.964844 21.25-32.433594 21.25-52.003906 0-32.65625-20.921876-61.136719-52.0625-70.875l-4.480469 14.316406c24.847656 7.769532 41.542969 30.496094 41.542969 56.558594zm0 0"
          fill="#3f51b5"/>
    <path d="m107.109375 135.746094c-10.9375-11.140625-16.960937-25.878906-16.960937-41.496094 0-26.011719 16.65625-48.730469 41.449218-56.53125l-4.503906-14.308594c-31.070312 9.777344-51.945312 38.242188-51.945312 70.839844 0 19.570312 7.550781 38.039062 21.253906 52.003906zm0 0"
          fill="#3f51b5"/>
    <path d="m149.398438 148.0625v-15c16.953124 0 32.230468-11.335938 37.152343-27.566406l14.355469 4.355468c-6.828125 22.5-28.007812 38.210938-51.507812 38.210938zm53.652343-49.617188-14.957031-1.152343c.078125-1.007813.117188-2.03125.117188-3.042969 0-3.195312-.390626-6.371094-1.15625-9.4375l14.546874-3.644531c1.070313 4.257812 1.609376 8.660156 1.609376 13.082031.003906 1.394531-.054688 2.808594-.160157 4.195312zm-18.898437-21.464843c-1.875-3.757813-4.339844-7.175781-7.324219-10.160157l10.605469-10.605468c4.128906 4.128906 7.542968 8.859375 10.140625 14.066406zm0 0"
          fill="#3f51b5"/>
    <path d="m207.824219 487v-15c28.109375 0 50.976562-22.867188 50.976562-50.976562v-73.832032h15v73.832032c0 36.378906-29.597656 65.976562-65.976562 65.976562zm65.976562-149.808594h-15v-15h15zm0-25h-15v-15h15zm0 0"
          fill="#3f51b5"/>
    <path d="m156.84375 421.023438h-15v-103.273438h15zm0-113.273438h-15v-15h15zm0-25h-15v-15h15zm0 0" fill="#3f51b5"/>
</svg>
